<svg width="227" height="170" viewBox="0 0 227 170" fill="none" xmlns="http://www.w3.org/2000/svg">
<path fill-rule="evenodd" clip-rule="evenodd" d="M89.0138 21.5798L0.982563 38.3241L3.32619 50.6454C5.17664 60.374 3.7762 70.4317 2.37605 80.4873C1.75783 84.9272 1.13966 89.3667 0.801417 93.7774C0.483578 97.9218 0.699238 102.111 1.49464 106.292C2.29005 110.474 3.62731 114.45 5.44453 118.188C7.37845 122.166 9.58334 126.069 11.7884 129.972C16.7826 138.811 21.7778 147.652 23.6282 157.381L25.9719 169.702L119.041 152C119.014 151.67 119 151.337 119 151C119 144.373 124.373 139 131 139C136.424 139 141.008 142.599 142.493 147.539L225.988 131.657L223.645 119.336C221.794 109.608 223.195 99.5498 224.595 89.4942L224.595 89.4937C225.213 85.0539 225.831 80.6146 226.17 76.2042C226.487 72.0597 226.272 67.8709 225.476 63.6891C224.681 59.5074 223.344 55.5319 221.527 51.7935C219.593 47.8152 217.388 43.9127 215.183 40.0099L215.183 40.0097C210.188 31.1703 205.193 22.3291 203.343 12.6005L200.999 0.279175L112.365 17.1382C112.777 18.35 113 19.6489 113 21C113 27.6274 107.627 33 101 33C94.567 33 89.3162 27.9379 89.0138 21.5798Z" fill="#F9BEFA"/>
</svg>
